<?xml version="1.0" standalone="no"?>
<!DOCTYPE svg PUBLIC "-//W3C//DTD SVG 20010904//EN"
 "http://www.w3.org/TR/2001/REC-SVG-20010904/DTD/svg10.dtd">
<svg version="1.0" xmlns="http://www.w3.org/2000/svg"
 width="1600.000000pt" height="710.000000pt" viewBox="0 0 1600.000000 710.000000"
 preserveAspectRatio="xMidYMid meet">

<g transform="translate(0.000000,710.000000) scale(0.100000,-0.100000)"
fill="#000000" stroke="none">
<path d="M3360 7094 c-25 -2 -112 -11 -195 -19 -544 -54 -1088 -250 -1565
-562 -269 -177 -559 -435 -767 -683 -58 -69 -116 -141 -129 -160 -13 -19 -49
-71 -81 -115 -207 -292 -403 -716 -499 -1080 -41 -153 -82 -376 -101 -537 -22
-202 -23 -576 0 -783 105 -959 598 -1827 1377 -2426 499 -384 1119 -633 1759
-706 199 -23 585 -23 786 0 1102 124 2076 750 2657 1707 52 86 152 275 162
308 l7 22 -356 0 c-330 0 -356 -1 -362 -17 -41 -108 -340 -478 -509 -628 -267
-238 -448 -361 -727 -495 -276 -132 -519 -207 -847 -262 -117 -19 -172 -22
-415 -22 -260 0 -292 2 -445 27 -207 35 -459 101 -590 155 -14 6 -50 20 -80
32 -122 50 -320 151 -422 216 -103 66 -131 85 -238 165 -208 157 -441 394
-595 609 -399 552 -588 1205 -547 1892 39 653 295 1267 734 1758 540 606 1295
956 2105 977 480 13 905 -78 1339 -286 358 -172 653 -394 918 -692 126 -141
289 -361 316 -426 l10 -23 355 0 356 0 -7 23 c-8 27 -122 247 -138 266 -6 8
-29 44 -51 82 -288 486 -767 943 -1303 1243 -395 221 -874 374 -1322 422 -142
15 -501 26 -590 18z"/>
<path d="M13765 4566 c-215 -50 -375 -231 -420 -475 -8 -46 -15 -89 -15 -97 0
-11 28 -14 145 -14 114 0 145 3 145 13 0 8 9 43 21 80 24 77 80 147 143 179
52 26 156 35 226 18 71 -17 152 -97 175 -172 18 -60 20 -156 4 -213 -15 -53
-34 -80 -314 -439 -132 -169 -280 -361 -330 -425 -49 -65 -118 -154 -152 -199
l-63 -81 0 -140 0 -141 580 0 580 0 0 150 0 150 -391 0 -391 0 39 48 c22 26
74 92 116 147 91 120 202 264 220 285 13 15 112 145 245 319 124 161 161 261
162 423 0 248 -130 457 -345 551 -76 34 -97 38 -220 43 -64 2 -122 -1 -160
-10z"/>
<path d="M15359 4533 c-11 -29 -26 -64 -64 -148 -160 -354 -511 -1129 -525
-1160 -72 -157 -70 -147 -70 -301 l0 -144 423 -2 422 -3 3 -157 3 -158 139 0
140 0 0 160 0 160 85 0 85 0 0 140 0 140 -85 0 -85 0 0 300 0 300 -140 0 -140
0 0 -300 0 -300 -269 0 -270 0 23 53 c13 28 166 364 340 745 174 381 316 695
316 697 0 3 -72 5 -160 5 l-160 0 -11 -27z"/>
<path d="M3280 3450 l0 -990 765 0 765 0 0 140 0 140 -620 0 -620 0 0 850 0
850 -145 0 -145 0 0 -990z"/>
<path d="M5966 4268 c-49 -89 -89 -167 -89 -173 0 -7 75 -149 168 -316 93
-167 258 -466 368 -664 109 -198 236 -426 280 -507 l82 -148 187 0 187 0 -83
148 c-45 81 -183 329 -305 552 -123 223 -232 417 -242 432 -11 15 -19 29 -19
32 0 5 -400 732 -429 778 l-16 26 -89 -160z"/>
<path d="M7340 3445 l0 -985 140 0 140 0 0 460 0 460 216 0 c149 0 248 5 316
16 55 9 101 14 102 12 1 -2 13 -21 27 -43 15 -22 52 -83 84 -135 32 -52 65
-106 75 -120 9 -14 33 -54 54 -90 20 -36 50 -85 65 -110 41 -65 193 -315 237
-387 l37 -63 164 0 164 0 -28 48 c-15 26 -51 85 -80 132 -29 47 -66 108 -82
135 -16 28 -52 86 -80 130 -27 44 -81 132 -119 195 -38 63 -102 169 -142 235
-40 66 -84 137 -98 158 -24 35 -25 40 -9 48 9 6 50 36 91 69 208 165 354 473
356 748 l0 72 -815 0 -815 0 0 -985z m1310 700 c0 -15 -46 -116 -68 -150 -103
-156 -234 -256 -402 -307 -55 -18 -102 -21 -312 -25 l-248 -5 0 246 0 246 515
0 c283 0 515 -2 515 -5z"/>
<path d="M9320 3775 c0 -717 2 -739 65 -864 39 -78 93 -142 193 -227 187 -159
474 -245 717 -214 138 17 142 18 225 47 208 74 410 236 491 394 10 20 28 70
39 110 19 71 20 101 20 736 l0 663 -140 0 -140 0 0 -578 c0 -490 -2 -587 -16
-637 -59 -228 -239 -404 -459 -450 -94 -20 -154 -19 -252 5 -123 29 -194 70
-285 161 -80 81 -113 134 -151 242 -21 60 -21 77 -24 660 l-4 597 -139 0 -140
0 0 -645z"/>
<path d="M11790 4410 c-122 -21 -288 -144 -354 -264 -57 -101 -76 -173 -76
-280 0 -266 172 -483 436 -550 51 -13 129 -16 433 -16 l372 0 59 -30 c216
-109 194 -423 -35 -509 -57 -21 -69 -22 -414 -19 l-356 3 -56 26 c-61 29 -118
89 -145 155 -9 21 -16 40 -15 42 0 1 1 11 1 22 0 19 -7 20 -140 20 l-140 0 0
-40 c0 -22 11 -74 25 -117 49 -148 150 -265 293 -337 93 -47 182 -56 548 -56
260 0 350 3 415 16 188 35 335 158 414 344 34 78 45 228 25 324 -39 188 -192
353 -387 417 -65 22 -88 23 -468 28 l-400 6 -45 27 c-51 30 -76 55 -111 113
-32 54 -35 189 -4 250 27 56 99 121 153 139 66 23 748 23 812 1 81 -29 153
-108 171 -191 l12 -54 139 0 138 0 0 38 c0 47 -23 126 -58 201 -39 82 -167
207 -256 249 -38 18 -92 37 -119 43 -59 11 -802 10 -867 -1z"/>
<path d="M5695 3779 c-43 -78 -88 -161 -100 -183 -13 -23 -43 -77 -68 -121
-139 -248 -557 -1005 -557 -1010 0 -3 82 -5 183 -5 l183 0 309 558 c169 306
310 560 312 563 3 6 -161 316 -176 332 -4 4 -43 -57 -86 -134z"/>
<path d="M7068 2049 c-36 -14 -68 -67 -68 -115 0 -72 57 -125 134 -124 38 1
68 17 96 53 20 26 21 27 2 27 -10 0 -27 -9 -37 -20 -42 -47 -130 -30 -155 29
-38 94 78 175 151 105 15 -14 34 -24 42 -22 13 2 10 10 -12 37 -23 28 -35 34
-77 37 -27 2 -61 -1 -76 -7z"/>
<path d="M7293 1938 c1 -84 6 -123 14 -125 8 -3 13 14 15 54 l3 58 46 3 47 3
31 -56 c30 -53 54 -75 68 -61 3 3 -5 23 -19 43 -60 92 -59 85 -27 121 16 18
29 43 29 57 l0 25 -105 0 -104 0 2 -122z m167 78 c0 -28 -51 -57 -94 -54 -38
3 -41 5 -44 36 l-3 32 70 0 c55 0 71 -3 71 -14z"/>
<path d="M7880 2045 c0 -12 19 -15 110 -15 91 0 110 3 110 15 0 12 -19 15
-110 15 -91 0 -110 -3 -110 -15z"/>
<path d="M8150 2045 c0 -12 19 -15 110 -15 91 0 110 3 110 15 0 12 -19 15
-110 15 -91 0 -110 -3 -110 -15z"/>
<path d="M8420 1935 c0 -104 2 -125 15 -125 13 0 15 21 15 125 0 104 -2 125
-15 125 -13 0 -15 -21 -15 -125z"/>
<path d="M8660 1980 c0 -44 -3 -80 -7 -80 -4 0 -43 35 -85 77 -59 58 -78 73
-78 58 0 -12 40 -60 100 -120 l100 -100 0 123 c0 102 -2 122 -15 122 -12 0
-15 -16 -15 -80z"/>
<path d="M8804 2050 c-11 -4 -33 -23 -48 -40 -22 -26 -26 -41 -24 -77 4 -84
57 -123 168 -123 l70 0 0 75 0 75 -61 0 c-70 0 -79 -22 -13 -30 38 -5 39 -6
42 -49 l3 -43 -67 4 c-58 4 -70 8 -90 32 -35 39 -32 87 7 125 29 29 35 31 105
31 59 0 74 3 74 15 0 12 -14 15 -72 14 -40 0 -82 -4 -94 -9z"/>
<path d="M9206 2038 c-21 -29 -20 -82 0 -99 10 -8 48 -16 87 -19 61 -4 71 -8
78 -27 13 -35 -13 -53 -76 -53 -34 0 -59 5 -69 15 -19 19 -36 19 -36 1 0 -28
42 -46 108 -46 53 0 67 4 87 25 30 30 31 54 4 89 -18 23 -27 26 -84 26 -71 0
-91 14 -81 55 6 23 10 25 71 25 54 0 66 -3 75 -20 11 -20 40 -28 40 -11 0 4
-9 20 -21 35 -19 24 -26 26 -94 26 -65 0 -76 -3 -89 -22z"/>
<path d="M9457 2054 c-17 -18 14 -24 114 -24 90 0 109 3 109 15 0 12 -19 15
-108 15 -60 0 -112 -3 -115 -6z"/>
<path d="M9785 2051 c-35 -16 -70 -73 -70 -116 0 -43 28 -90 68 -112 51 -28
144 -4 165 42 10 22 9 25 -8 25 -11 0 -24 -9 -30 -20 -6 -10 -25 -22 -43 -25
-96 -18 -157 87 -91 156 37 39 94 40 130 3 14 -14 33 -24 42 -22 13 2 10 10
-14 37 -25 28 -38 34 -80 37 -27 2 -58 0 -69 -5z"/>
<path d="M10010 1969 c0 -101 7 -122 50 -144 40 -21 89 -19 128 5 42 26 52 54
52 151 0 72 -2 79 -20 79 -18 0 -20 -7 -20 -85 0 -79 -2 -88 -26 -112 -21 -21
-32 -24 -62 -19 -58 9 -72 34 -72 132 0 68 -3 84 -15 84 -12 0 -15 -17 -15
-91z"/>
<path d="M10280 1935 c0 -103 3 -125 15 -125 10 0 15 15 17 58 l3 57 44 0 c44
0 45 -1 78 -57 24 -40 40 -58 54 -58 13 0 18 4 13 13 -4 6 -23 36 -42 65 l-34
54 20 21 c20 21 42 68 42 88 0 5 -47 9 -105 9 l-105 0 0 -125z m170 88 c-2
-31 -55 -63 -104 -63 -34 0 -36 2 -36 35 l0 35 70 0 c39 0 70 -3 70 -7z"/>
<path d="M10560 1935 c0 -104 2 -125 15 -125 13 0 15 21 15 125 0 104 -2 125
-15 125 -13 0 -15 -21 -15 -125z"/>
<path d="M10632 2048 c3 -9 38 -14 116 -16 95 -2 112 0 112 13 0 13 -18 15
-116 15 -88 0 -115 -3 -112 -12z"/>
<path d="M10910 2056 c0 -2 20 -30 45 -62 42 -54 45 -61 45 -121 0 -49 3 -63
15 -63 12 0 15 13 15 59 0 54 3 63 50 125 42 56 46 66 29 66 -12 0 -32 -17
-51 -45 -18 -25 -35 -45 -39 -45 -5 0 -22 20 -39 45 -19 27 -39 45 -50 45 -11
0 -20 -2 -20 -4z"/>
<path d="M11498 2045 c-54 -31 -74 -114 -42 -176 25 -49 107 -74 157 -48 28
15 67 50 67 61 0 17 -32 7 -50 -14 -14 -18 -29 -23 -65 -23 -39 0 -51 5 -71
28 -32 38 -32 86 2 126 34 41 92 44 130 6 24 -24 54 -34 54 -17 0 5 -13 21
-30 37 -36 34 -109 44 -152 20z"/>
<path d="M11730 1969 c0 -101 7 -122 50 -144 42 -22 92 -19 131 8 l34 23 3
102 c2 87 0 102 -13 102 -13 0 -15 -15 -14 -87 1 -84 0 -88 -27 -111 -22 -19
-35 -23 -63 -18 -57 9 -71 35 -71 132 0 68 -3 84 -15 84 -12 0 -15 -17 -15
-91z"/>
<path d="M12000 1935 c0 -104 2 -125 15 -125 12 0 15 13 15 60 l0 60 44 0 c46
0 53 -7 111 -105 6 -10 18 -16 27 -14 13 3 8 16 -24 68 -39 64 -39 64 -19 85
19 20 41 67 41 87 0 5 -47 9 -105 9 l-105 0 0 -125z m170 86 c0 -5 -14 -21
-31 -35 -21 -18 -42 -26 -70 -26 -38 0 -39 1 -39 35 l0 35 70 0 c39 0 70 -4
70 -9z"/>
<path d="M12386 2034 c-5 -19 1 -38 22 -72 16 -26 31 -51 33 -57 14 -38 57
-95 72 -95 9 0 17 3 17 6 0 8 -130 244 -135 244 -1 0 -6 -12 -9 -26z"/>
<path d="M12492 2048 c3 -9 38 -14 116 -16 95 -2 112 0 112 13 0 13 -18 15
-116 15 -88 0 -115 -3 -112 -12z"/>
<path d="M12760 1935 c0 -104 2 -125 15 -125 13 0 15 21 15 125 0 104 -2 125
-15 125 -13 0 -15 -21 -15 -125z"/>
<path d="M13009 2023 c-1 -33 -5 -89 -8 -118 -1 -5 -37 26 -81 70 -64 63 -80
75 -80 58 0 -14 34 -56 94 -117 52 -53 97 -96 100 -96 3 0 6 54 6 120 0 100
-2 120 -15 120 -10 0 -15 -11 -16 -37z"/>
<path d="M13154 2050 c-39 -15 -74 -68 -74 -111 0 -91 50 -129 170 -129 l70 0
0 75 0 75 -61 0 c-44 0 -60 -3 -57 -12 3 -7 21 -14 41 -16 37 -3 37 -4 37 -49
l0 -45 -62 4 c-51 4 -65 9 -85 32 -33 38 -31 86 6 125 28 29 33 31 105 31 61
0 76 3 76 15 0 12 -14 15 -72 14 -40 0 -82 -4 -94 -9z"/>
<path d="M13530 2045 c0 -12 19 -15 115 -15 96 0 115 3 115 15 0 12 -19 15
-115 15 -96 0 -115 -3 -115 -15z"/>
<path d="M13826 2048 c51 -85 174 -238 190 -238 20 0 18 5 -26 65 -39 52 -48
79 -32 89 4 2 22 25 40 50 28 39 30 46 15 46 -10 0 -34 -20 -53 -45 -19 -24
-37 -44 -40 -44 -3 0 -18 20 -35 44 -17 26 -38 45 -48 45 -12 0 -16 -4 -11
-12z"/>
<path d="M14088 2053 c-2 -5 -3 -42 -2 -83 2 -41 3 -94 3 -117 1 -31 5 -43 16
-43 12 0 15 13 15 60 l0 60 63 0 c53 0 67 4 85 23 27 29 28 57 2 85 -18 19
-31 22 -100 22 -43 0 -80 -3 -82 -7z m161 -40 c19 -35 -4 -53 -69 -53 l-60 0
0 35 0 35 60 0 c45 0 61 -4 69 -17z"/>
<path d="M14340 2045 c0 -12 19 -15 110 -15 91 0 110 3 110 15 0 12 -19 15
-110 15 -91 0 -110 -3 -110 -15z"/>
<path d="M14600 1935 c0 -103 3 -125 15 -125 10 0 15 15 17 58 l3 57 46 3 46
3 37 -61 c20 -33 44 -60 52 -60 20 0 18 5 -22 71 -34 55 -36 60 -21 77 14 16
47 83 47 97 0 3 -49 5 -110 5 l-110 0 0 -125z m170 75 c-18 -33 -55 -52 -97
-48 -27 2 -39 8 -41 21 -8 40 4 47 78 47 68 0 70 -1 60 -20z"/>
<path d="M14890 1935 c0 -104 2 -125 15 -125 13 0 15 21 15 125 0 104 -2 125
-15 125 -13 0 -15 -21 -15 -125z"/>
<path d="M14960 2045 c0 -12 19 -15 115 -15 96 0 115 3 115 15 0 12 -19 15
-115 15 -96 0 -115 -3 -115 -15z"/>
<path d="M15230 2036 c0 -14 35 -56 100 -121 l100 -100 0 123 c0 102 -2 122
-15 122 -12 0 -15 -16 -15 -80 0 -44 -4 -80 -8 -80 -5 0 -43 35 -85 79 -61 62
-77 74 -77 57z"/>
<path d="M15509 2021 c-33 -33 -39 -45 -39 -81 0 -94 86 -154 173 -121 26 10
67 49 67 63 0 15 -24 8 -48 -14 -36 -35 -106 -32 -138 5 -34 40 -32 90 5 128
38 38 87 39 129 4 57 -48 73 -25 17 24 -29 25 -45 31 -82 31 -39 0 -50 -5 -84
-39z"/>
<path d="M15780 2045 c0 -12 19 -15 110 -15 91 0 110 3 110 15 0 12 -19 15
-110 15 -91 0 -110 -3 -110 -15z"/>
<path d="M7677 2036 c-7 -17 99 -215 119 -223 7 -3 18 -3 23 -1 10 3 -113 231
-128 236 -5 2 -11 -4 -14 -12z"/>
<path d="M7880 1905 c0 -78 3 -95 15 -95 12 0 15 13 15 60 l0 60 85 0 c69 0
85 3 85 15 0 12 -16 15 -85 15 -78 0 -85 2 -85 20 0 11 -7 20 -15 20 -12 0
-15 -17 -15 -95z"/>
<path d="M8240 1905 c0 -78 3 -95 15 -95 12 0 15 17 15 95 0 78 -3 95 -15 95
-12 0 -15 -17 -15 -95z"/>
<path d="M9458 1983 c-4 -15 -3 -139 1 -165 1 -5 51 -8 111 -8 91 0 110 3 110
15 0 12 -18 15 -99 15 l-99 0 2 43 1 42 83 3 c64 2 82 6 82 17 0 12 -17 15
-80 15 -77 0 -86 3 -81 33 2 15 -27 6 -31 -10z"/>
<path d="M10730 1905 c0 -78 3 -95 15 -95 12 0 15 17 15 95 0 78 -3 95 -15 95
-12 0 -15 -17 -15 -95z"/>
<path d="M12590 1905 c0 -78 3 -95 15 -95 12 0 15 17 15 95 0 78 -3 95 -15 95
-12 0 -15 -17 -15 -95z"/>
<path d="M13530 1905 l0 -95 115 0 c96 0 115 3 115 15 0 12 -17 15 -95 15
l-95 0 0 45 0 45 85 0 c69 0 85 3 85 15 0 12 -16 15 -85 15 -78 0 -85 2 -85
20 0 13 -7 20 -20 20 -19 0 -20 -7 -20 -95z"/>
<path d="M14340 1905 l0 -95 110 0 c91 0 110 3 110 15 0 12 -17 15 -95 15
l-95 0 0 45 0 45 80 0 c64 0 80 3 80 15 0 12 -16 15 -80 15 -73 0 -80 2 -80
20 0 11 -7 20 -15 20 -12 0 -15 -17 -15 -95z"/>
<path d="M14960 1905 l0 -95 115 0 c96 0 115 3 115 15 0 12 -18 15 -101 15
l-100 0 3 43 3 42 83 3 c64 2 82 6 82 17 0 12 -17 15 -81 15 -72 0 -81 2 -86
20 -3 11 -12 20 -19 20 -11 0 -14 -21 -14 -95z"/>
<path d="M15780 1905 l0 -95 110 0 c91 0 110 3 110 15 0 12 -18 15 -98 15
l-97 0 1 43 1 42 81 3 c63 2 82 6 82 17 0 11 -19 15 -82 17 -73 3 -83 5 -80
21 2 10 -3 17 -13 17 -12 0 -15 -16 -15 -95z"/>
<path d="M7607 1905 c-26 -47 -47 -88 -47 -91 0 -3 9 -4 20 -2 14 2 34 27 60
75 32 59 36 74 26 88 -10 14 -18 4 -59 -70z"/>
<path d="M8490 1897 c0 -71 3 -87 15 -87 21 0 21 127 0 154 -14 18 -15 11 -15
-67z"/>
<path d="M12332 1943 c-11 -21 -31 -59 -45 -85 l-26 -48 22 0 c17 0 31 16 60
71 36 65 42 99 18 99 -6 0 -19 -17 -29 -37z"/>
<path d="M15230 1896 c0 -70 3 -86 15 -86 12 0 15 15 15 74 0 53 -4 77 -15 86
-13 11 -15 2 -15 -74z"/>
<path d="M12840 1891 c0 -65 3 -81 15 -81 12 0 15 14 15 69 0 49 -4 72 -15 81
-13 11 -15 2 -15 -69z"/>
<path d="M13847 1864 c-33 -47 -35 -54 -19 -54 21 0 72 59 72 84 0 31 -16 22
-53 -30z"/>
<path d="M11186 1864 c-9 -24 -7 -54 4 -54 10 0 30 32 30 48 0 17 -28 21 -34
6z"/>
</g>
</svg>
