<?xml version="1.0" encoding="iso-8859-1"?>
<!-- Uploaded to: SVG Repo, www.svgrepo.com, Generator: SVG Repo Mixer Tools -->
<!DOCTYPE svg PUBLIC "-//W3C//DTD SVG 1.1//EN" "http://www.w3.org/Graphics/SVG/1.1/DTD/svg11.dtd">
<svg fill="#004D80" height="800px" width="800px" version="1.1" id="Capa_1" xmlns="http://www.w3.org/2000/svg" xmlns:xlink="http://www.w3.org/1999/xlink" 
	 viewBox="0 0 201.993 201.993" xml:space="preserve">
<path d="M100.997,201.993c-21.188,0-41.057-8.058-55.946-22.689c-14.973-14.712-23.218-34.437-23.218-55.542V14.764
	c0-2.262,1.52-4.243,3.704-4.829c49.367-13.247,101.553-13.247,150.92,0c2.185,0.586,3.704,2.567,3.704,4.829v108.065
	C180.161,166.481,144.648,201.993,100.997,201.993z M31.833,18.627v105.135c0,37.623,31.027,68.231,69.164,68.231
	s69.164-31.027,69.164-69.164V18.627C124.827,7.124,77.167,7.124,31.833,18.627z M100.997,142.489
	c-25.422,0-46.104-20.682-46.104-46.104S75.575,50.28,100.997,50.28s46.104,20.683,46.104,46.104S126.419,142.489,100.997,142.489z
	 M100.997,60.28c-19.908,0-36.104,16.196-36.104,36.104c0,19.908,16.196,36.104,36.104,36.104s36.104-16.196,36.104-36.104
	C137.101,76.476,120.905,60.28,100.997,60.28z M93.747,119.652c-1.326,0-2.598-0.527-3.535-1.464l-16.333-16.333
	c-1.953-1.953-1.953-5.119,0-7.071c1.951-1.952,5.119-1.952,7.07,0l12.798,12.798l27.298-27.298c1.951-1.952,5.119-1.952,7.07,0
	c1.953,1.953,1.953,5.119,0,7.071l-30.833,30.833C96.344,119.125,95.073,119.652,93.747,119.652z"/>
</svg>